# xmcd CD database file generated by OrangeCD 6.4
#
# Track frame offsets:
#	150
#	14799
#	31240
#	50162
#	65096
#	78891
#	104067
#	115332
#	128936
#	148201
#	165439
#	184681
#	202847
#	218931
#	242141
#	262260
#	277983
#	294301
#
# Disc length: 4176 seconds
#
# Revision: 1
# Processed by: cddbd v1.5.2PL0 Copyright (c) Steve Scherf et al.
# Submitted via: OrangeCD 6.4
#
DISCID=1b104e12
DTITLE=Imperiet - Silver, guld och misär
DYEAR=2009
DGENRE=Rock
TTITLE0=Alltid rött alltid rätt (singelversion)
TTITLE1=Rasera
TTITLE2=Tusentals händer
TTITLE3=Vita febern
TTITLE4=Sjung inte falskt
TTITLE5=Silver, guld och misär
TTITLE6=Kom ihåg (den fria världen)
TTITLE7=Guld och döda skogar
TTITLE8=Blå från Berlin
TTITLE9=Kontroll i Stockholm
TTITLE10=Höghus, låghus, dårhus
TTITLE11=Det glittrar
TTITLE12=Dekadanser
TTITLE13=Kickar
TTITLE14=Kriget med mej själv
TTITLE15=Gigolo Blues
TTITLE16=Jag kan inte leva utan dej
TTITLE17=Den nya dansmusiken (singelversion)
EXTD=
EXTT0=
EXTT1=
EXTT2=
EXTT3=
EXTT4=
EXTT5=
EXTT6=
EXTT7=
EXTT8=
EXTT9=
EXTT10=
EXTT11=
EXTT12=
EXTT13=
EXTT14=
EXTT15=
EXTT16=
EXTT17=
PLAYORDER=
